<svg width="1457" height="375" viewBox="0 0 1457 375" fill="none" xmlns="http://www.w3.org/2000/svg">
<rect width="312" height="375" rx="25" fill="#EEEEEE"/>
<rect x="36" y="56" width="241" height="8" rx="4" fill="#D9D9D9"/>
<rect x="36" y="78" width="241" height="8" rx="4" fill="#D9D9D9"/>
<rect x="36" y="110" width="43" height="5" rx="2.5" fill="#D9D9D9"/>
<rect x="36" y="126" width="241" height="5" rx="2.5" fill="#D9D9D9"/>
<rect x="36" y="138" width="241" height="5" rx="2.5" fill="#D9D9D9"/>
<rect x="36" y="150" width="241" height="5" rx="2.5" fill="#D9D9D9"/>
<rect x="36" y="162" width="241" height="5" rx="2.5" fill="#D9D9D9"/>
<rect x="36" y="186" width="43" height="5" rx="2.5" fill="#D9D9D9"/>
<rect x="36" y="202" width="241" height="5" rx="2.5" fill="#D9D9D9"/>
<rect x="36" y="214" width="241" height="5" rx="2.5" fill="#D9D9D9"/>
<rect x="36" y="226" width="241" height="5" rx="2.5" fill="#D9D9D9"/>
<rect x="36" y="238" width="241" height="5" rx="2.5" fill="#D9D9D9"/>
<rect x="36" y="262" width="14.9876" height="5" rx="2.5" fill="#D9D9D9"/>
<rect x="36" y="278" width="84" height="5" rx="2.5" fill="#D9D9D9"/>
<rect x="36" y="290" width="84" height="5" rx="2.5" fill="#D9D9D9"/>
<rect x="36" y="302" width="84" height="5" rx="2.5" fill="#D9D9D9"/>
<rect x="36" y="314" width="84" height="5" rx="2.5" fill="#D9D9D9"/>
<rect x="138" y="262" width="24.8008" height="5" rx="2.5" fill="#D9D9D9"/>
<rect x="138" y="278" width="139" height="5" rx="2.5" fill="#D9D9D9"/>
<rect x="138" y="290" width="139" height="5" rx="2.5" fill="#D9D9D9"/>
<rect x="138" y="302" width="139" height="5" rx="2.5" fill="#D9D9D9"/>
<rect x="138" y="314" width="139" height="5" rx="2.5" fill="#D9D9D9"/>
<rect x="36" y="20" width="27" height="27" rx="13.5" fill="#D9D9D9"/>
<rect x="84" y="28" width="78" height="10" rx="5" fill="#D9D9D9"/>
<rect x="169" y="28" width="78" height="10" rx="5" fill="#D9D9D9"/>
<g filter="url(#filter0_d_711_276)">
<rect x="604.5" y="189.5" width="311" height="162" rx="24.5" fill="#EEEEEE" stroke="#D7D7D7"/>
<rect x="639.5" y="242.5" width="13.9876" height="4" rx="2" fill="#D9D9D9" stroke="#D7D7D7"/>
<rect x="639.5" y="258.5" width="83" height="4" rx="2" fill="#D9D9D9" stroke="#D7D7D7"/>
<rect x="639.5" y="270.5" width="83" height="4" rx="2" fill="#D9D9D9" stroke="#D7D7D7"/>
<rect x="639.5" y="282.5" width="83" height="4" rx="2" fill="#D9D9D9" stroke="#D7D7D7"/>
<rect x="639.5" y="294.5" width="83" height="4" rx="2" fill="#D9D9D9" stroke="#D7D7D7"/>
<rect x="741.5" y="242.5" width="23.8008" height="4" rx="2" fill="#D9D9D9" stroke="#D7D7D7"/>
<rect x="741.5" y="258.5" width="138" height="4" rx="2" fill="#D9D9D9" stroke="#D7D7D7"/>
<rect x="741.5" y="270.5" width="138" height="4" rx="2" fill="#D9D9D9" stroke="#D7D7D7"/>
<rect x="741.5" y="282.5" width="138" height="4" rx="2" fill="#D9D9D9" stroke="#D7D7D7"/>
<rect x="741.5" y="294.5" width="138" height="4" rx="2" fill="#D9D9D9" stroke="#D7D7D7"/>
</g>
<g filter="url(#filter1_d_711_276)">
<rect x="567.5" y="108.5" width="311" height="162" rx="24.5" fill="#EEEEEE" stroke="#D7D7D7"/>
<rect x="602.5" y="161.5" width="42" height="4" rx="2" fill="#D9D9D9" stroke="#D7D7D7"/>
<rect x="602.5" y="177.5" width="240" height="4" rx="2" fill="#D9D9D9" stroke="#D7D7D7"/>
<rect x="602.5" y="189.5" width="240" height="4" rx="2" fill="#D9D9D9" stroke="#D7D7D7"/>
<rect x="602.5" y="201.5" width="240" height="4" rx="2" fill="#D9D9D9" stroke="#D7D7D7"/>
<rect x="602.5" y="213.5" width="240" height="4" rx="2" fill="#D9D9D9" stroke="#D7D7D7"/>
</g>
<g filter="url(#filter2_d_711_276)">
<rect x="531.5" y="26.5" width="311" height="162" rx="24.5" fill="#EEEEEE" stroke="#D7D7D7"/>
<rect x="555.5" y="120.5" width="240" height="7" rx="3.5" fill="#D9D9D9" stroke="#D7D7D7"/>
<rect x="555.5" y="142.5" width="240" height="7" rx="3.5" fill="#D9D9D9" stroke="#D7D7D7"/>
<rect x="555.5" y="50.5" width="77" height="9" rx="4.5" fill="#D9D9D9" stroke="#D7D7D7"/>
<rect x="555.5" y="91.5" width="182" height="9" rx="4.5" fill="#D9D9D9" stroke="#D7D7D7"/>
</g>
<g filter="url(#filter3_d_711_276)">
<rect x="1135.5" y="96.5" width="311" height="162" rx="24.5" fill="#EEEEEE" stroke="#D7D7D7"/>
<rect x="1159.5" y="190.5" width="240" height="7" rx="3.5" fill="#D9D9D9" stroke="#D7D7D7"/>
<rect x="1159.5" y="212.5" width="240" height="7" rx="3.5" fill="#D9D9D9" stroke="#D7D7D7"/>
<rect x="1159.5" y="120.5" width="77" height="9" rx="4.5" fill="#D9D9D9" stroke="#D7D7D7"/>
<rect x="1159.5" y="161.5" width="182" height="9" rx="4.5" fill="#D9D9D9" stroke="#D7D7D7"/>
<rect x="1135" y="96" width="312" height="163" rx="25" fill="#171717" fill-opacity="0.5"/>
<circle cx="1291.5" cy="177.5" r="28.5" fill="#D9D9D9"/>
<path d="M1303 175.768C1304.33 176.538 1304.33 178.462 1303 179.232L1287.25 188.325C1285.92 189.095 1284.25 188.133 1284.25 186.593L1284.25 168.407C1284.25 166.867 1285.92 165.905 1287.25 166.675L1303 175.768Z" fill="#828282"/>
</g>
<path d="M459.414 188.414C460.195 187.633 460.195 186.367 459.414 185.586L446.686 172.858C445.905 172.077 444.639 172.077 443.858 172.858C443.077 173.639 443.077 174.905 443.858 175.686L455.172 187L443.858 198.314C443.077 199.095 443.077 200.361 443.858 201.142C444.639 201.923 445.905 201.923 446.686 201.142L459.414 188.414ZM385 189H458V185H385V189Z" fill="black"/>
<path d="M1063.41 188.414C1064.2 187.633 1064.2 186.367 1063.41 185.586L1050.69 172.858C1049.91 172.077 1048.64 172.077 1047.86 172.858C1047.08 173.639 1047.08 174.905 1047.86 175.686L1059.17 187L1047.86 198.314C1047.08 199.095 1047.08 200.361 1047.86 201.142C1048.64 201.923 1049.91 201.923 1050.69 201.142L1063.41 188.414ZM989 189H1062V185H989V189Z" fill="black"/>
<defs>
<filter id="filter0_d_711_276" x="594" y="183" width="332" height="183" filterUnits="userSpaceOnUse" color-interpolation-filters="sRGB">
<feFlood flood-opacity="0" result="BackgroundImageFix"/>
<feColorMatrix in="SourceAlpha" type="matrix" values="0 0 0 0 0 0 0 0 0 0 0 0 0 0 0 0 0 0 127 0" result="hardAlpha"/>
<feOffset dy="4"/>
<feGaussianBlur stdDeviation="5"/>
<feComposite in2="hardAlpha" operator="out"/>
<feColorMatrix type="matrix" values="0 0 0 0 0 0 0 0 0 0 0 0 0 0 0 0 0 0 0.1 0"/>
<feBlend mode="normal" in2="BackgroundImageFix" result="effect1_dropShadow_711_276"/>
<feBlend mode="normal" in="SourceGraphic" in2="effect1_dropShadow_711_276" result="shape"/>
</filter>
<filter id="filter1_d_711_276" x="557" y="102" width="332" height="183" filterUnits="userSpaceOnUse" color-interpolation-filters="sRGB">
<feFlood flood-opacity="0" result="BackgroundImageFix"/>
<feColorMatrix in="SourceAlpha" type="matrix" values="0 0 0 0 0 0 0 0 0 0 0 0 0 0 0 0 0 0 127 0" result="hardAlpha"/>
<feOffset dy="4"/>
<feGaussianBlur stdDeviation="5"/>
<feComposite in2="hardAlpha" operator="out"/>
<feColorMatrix type="matrix" values="0 0 0 0 0 0 0 0 0 0 0 0 0 0 0 0 0 0 0.1 0"/>
<feBlend mode="normal" in2="BackgroundImageFix" result="effect1_dropShadow_711_276"/>
<feBlend mode="normal" in="SourceGraphic" in2="effect1_dropShadow_711_276" result="shape"/>
</filter>
<filter id="filter2_d_711_276" x="521" y="20" width="332" height="183" filterUnits="userSpaceOnUse" color-interpolation-filters="sRGB">
<feFlood flood-opacity="0" result="BackgroundImageFix"/>
<feColorMatrix in="SourceAlpha" type="matrix" values="0 0 0 0 0 0 0 0 0 0 0 0 0 0 0 0 0 0 127 0" result="hardAlpha"/>
<feOffset dy="4"/>
<feGaussianBlur stdDeviation="5"/>
<feComposite in2="hardAlpha" operator="out"/>
<feColorMatrix type="matrix" values="0 0 0 0 0 0 0 0 0 0 0 0 0 0 0 0 0 0 0.1 0"/>
<feBlend mode="normal" in2="BackgroundImageFix" result="effect1_dropShadow_711_276"/>
<feBlend mode="normal" in="SourceGraphic" in2="effect1_dropShadow_711_276" result="shape"/>
</filter>
<filter id="filter3_d_711_276" x="1125" y="90" width="332" height="183" filterUnits="userSpaceOnUse" color-interpolation-filters="sRGB">
<feFlood flood-opacity="0" result="BackgroundImageFix"/>
<feColorMatrix in="SourceAlpha" type="matrix" values="0 0 0 0 0 0 0 0 0 0 0 0 0 0 0 0 0 0 127 0" result="hardAlpha"/>
<feOffset dy="4"/>
<feGaussianBlur stdDeviation="5"/>
<feComposite in2="hardAlpha" operator="out"/>
<feColorMatrix type="matrix" values="0 0 0 0 0 0 0 0 0 0 0 0 0 0 0 0 0 0 0.1 0"/>
<feBlend mode="normal" in2="BackgroundImageFix" result="effect1_dropShadow_711_276"/>
<feBlend mode="normal" in="SourceGraphic" in2="effect1_dropShadow_711_276" result="shape"/>
</filter>
</defs>
</svg>
